# xmcd CD database file generated by OrangeCD 6.1
#
# Track frame offsets:
#	150
#	18900
#	38703
#	59929
#	72305
#	86028
#	124654
#	142430
#	158257
#
# Disc length: 2378 seconds
#
# Revision: 0
# Processed by: cddbd v1.5.2PL0 Copyright (c) Steve Scherf et al.
# Submitted via: OrangeCD 6.1
#
DISCID=7e094809
DTITLE=Walter Jackson - Good To See You
DYEAR=1978
DGENRE=Soul
TTITLE0=I Won't Remember Ever Loving You
TTITLE1=If I Had My Way
TTITLE2=We Could Fly
TTITLE3=Manhattans Skyline
TTITLE4=If I Could See Myself
TTITLE5=Good To See You
TTITLE6=Open Up Your Heart
TTITLE7=Forgetting Someone
TTITLE8=Time
EXTD=
EXTT0=
EXTT1=
EXTT2=
EXTT3=
EXTT4=
EXTT5=
EXTT6=
EXTT7=
EXTT8=
PLAYORDER=
